<svg width="306" height="297" viewBox="0 0 306 297" fill="none" xmlns="http://www.w3.org/2000/svg">
<path fill-rule="evenodd" clip-rule="evenodd" d="M172.229 93.2819C172.187 89.9665 167.465 82.6898 165.765 82.9554C164.065 83.2211 153.088 88.4055 149.6 90.043C146.112 91.6805 105.747 90.5144 100.776 90.3852C95.8049 90.256 93.8115 86.8342 87.7945 84.0916C81.7775 81.349 79.4725 95.1272 79.3686 97.5586C79.1978 101.347 87.4875 97.2774 90.1595 97.9349C92.8316 98.5924 144.684 109.287 147.884 109.383C151.083 109.479 166.114 102.955 167.423 101.032C168.731 99.1093 172.271 96.5972 172.229 93.2819Z" fill="white"/>
<path fill-rule="evenodd" clip-rule="evenodd" d="M101.618 192.968H245.028C246.624 192.968 247.914 194.589 247.914 196.587V256.359C247.914 258.357 246.621 259.977 245.028 259.977H101.618C100.024 259.977 98.732 258.355 98.732 256.359V196.587C98.7297 194.589 100.024 192.968 101.618 192.968Z" fill="#D7E0FF"/>
<path d="M104.344 132.596L127.425 160.397" stroke="#5980FF" stroke-width="2.11683" stroke-linecap="round" stroke-linejoin="round"/>
<path d="M71.2267 201.153L87.9261 226.178" stroke="#1B3C87" stroke-width="1.8827" stroke-linecap="round" stroke-linejoin="round"/>
<path d="M126.487 262.618L158.927 260.21" stroke="#1B3C87" stroke-width="1.8827" stroke-linecap="round" stroke-linejoin="round"/>
<path d="M127.419 268.081L159.86 265.672" stroke="#1B3C87" stroke-width="1.8827" stroke-linecap="round" stroke-linejoin="round"/>
<path fill-rule="evenodd" clip-rule="evenodd" d="M197.89 152.927C195.012 153.14 142.195 165.07 135.348 167.101C128.501 169.133 80.2758 205.39 78.0147 207.436C79.4852 209.74 88.3832 222.872 88.3832 222.872L126.462 206.394C126.462 206.394 200.766 152.713 197.89 152.927Z" fill="#3C3744"/>
<path d="M99.6785 186.825C87.0974 195.987 75.457 204.825 74.3732 205.805C75.8437 208.115 84.7474 221.244 84.7474 221.244L122.827 204.766C122.827 204.766 197.13 151.085 194.254 151.299C191.378 151.513 138.56 163.441 131.712 165.473C129.543 166.116 123.221 170.194 115.524 175.531" stroke="#1B3C87" stroke-width="1.8827" stroke-linecap="round" stroke-linejoin="round"/>
<path fill-rule="evenodd" clip-rule="evenodd" d="M236.188 141.599C257.821 189.549 218.528 203.574 163.348 205.349C162.477 211.345 157.613 262.628 157.613 262.628L134.011 264.362C134.011 264.362 118.13 194.596 121.729 189.797C125.328 184.998 186.235 154.596 191.62 152.499C197.004 150.403 235.259 139.528 236.188 141.599Z" fill="#3C3744"/>
<path d="M202.451 198.212C190.332 201.219 175.877 202.724 160.124 203.232C159.253 209.227 154.389 260.511 154.389 260.511L130.787 262.244C130.787 262.244 128.182 250.801 125.322 236.862" stroke="#1B3C87" stroke-width="1.8827" stroke-linecap="round" stroke-linejoin="round"/>
<path d="M156.174 166.269C171.357 158.465 185.89 151.358 188.396 150.381C193.782 148.284 232.026 137.41 232.964 139.482C245.797 167.925 237.19 184.43 216.548 193.522" stroke="#1B3C87" stroke-width="1.8827" stroke-linecap="round" stroke-linejoin="round"/>
<path d="M122.606 223.171C119.393 206.32 116.827 189.921 118.507 187.68C120.008 185.68 131.472 179.226 144.72 172.232" stroke="#1B3C87" stroke-width="1.8827" stroke-linecap="round" stroke-linejoin="round"/>
<path d="M168.052 71.949C170.476 70.39 172.972 69.1123 174.759 68.9159" stroke="#1B3C87" stroke-width="1.8827" stroke-linecap="round" stroke-linejoin="round"/>
<path d="M164.714 89.8517C162.441 86.2728 159.233 79.6711 160.393 78.1019C160.678 77.7163 161.386 77.0267 162.355 76.1884" stroke="#1B3C87" stroke-width="1.8827" stroke-linecap="round" stroke-linejoin="round"/>
<path fill-rule="evenodd" clip-rule="evenodd" d="M169.104 94.7964C167.584 93.2654 161.292 81.254 162.657 79.4108C164.021 77.5676 176.022 68.6131 183.202 69.6603C181.274 74.8033 170.622 96.3274 169.104 94.7964Z" fill="#46DBC9"/>
<path fill-rule="evenodd" clip-rule="evenodd" d="M190.083 63.4619C226.73 51.5085 239.669 134.347 237.481 142.545C228.107 150.919 191.054 156.728 186.439 154.183C167.742 136.037 153.058 75.5364 190.083 63.4619Z" fill="#46DBC9"/>
<path d="M164.646 108.075C162.928 92.8716 165.478 77.7464 175.38 68.5592" stroke="#1B3C87" stroke-width="1.8827" stroke-linecap="round" stroke-linejoin="round"/>
<path d="M229.771 107.884C233.906 123.505 235.311 137.737 234.465 140.894C225.091 149.268 188.038 155.078 183.423 152.532C176.284 145.606 169.73 132.498 166.416 118.273" stroke="#1B3C87" stroke-width="1.8827" stroke-linecap="round" stroke-linejoin="round"/>
<path d="M175.374 68.5562C178.503 65.6513 182.369 63.3388 187.066 61.8078C206.255 55.5493 218.945 75.2788 226.366 96.6748" stroke="#1B3C87" stroke-width="1.8827" stroke-linecap="round" stroke-linejoin="round"/>
<path d="M112.672 88.6112C105.468 88.6298 99.8262 88.5905 99.0194 88.4644C96.7283 88.1088 86.8215 81.3812 84.1391 81.347" stroke="#1B3C87" stroke-width="1.8827" stroke-linecap="round" stroke-linejoin="round"/>
<path d="M160.835 82.1573C156.861 83.888 150.634 86.6276 147.922 88.1101C145.773 88.2579 137.772 88.4037 128.839 88.5009" stroke="#1B3C87" stroke-width="1.8827" stroke-linecap="round" stroke-linejoin="round"/>
<path d="M77.9836 95.6194C81.3886 97.872 86.1024 95.3382 88.7745 95.9957C91.4465 96.6531 143.306 107.349 146.502 107.444C149.698 107.538 162.892 101.833 164.198 99.9085" stroke="#1B3C87" stroke-width="1.8827" stroke-linecap="round" stroke-linejoin="round"/>
<path fill-rule="evenodd" clip-rule="evenodd" d="M183.041 102.224C181.078 105.872 176.744 115.973 175.488 119.64C171.816 121.513 137.809 136.208 128.088 142.128C125.559 142.375 117.656 139.829 115.689 139.998C113.722 140.166 113.319 141.314 113.319 141.314C108.866 141.53 107.131 149.72 112.793 151.342C118.454 152.964 122.142 154.4 126.113 152.358C130.083 150.315 187.645 137.402 191.933 134.784C197.718 131.255 201.008 123.619 204.35 117.32C207.853 110.716 206.252 114.201 206.252 111.745C206.252 109.289 185.005 98.5758 183.041 102.224Z" fill="white"/>
<path d="M105.382 140.722C107.087 142.059 111.354 143.419 114.154 143.823" stroke="#1B3C87" stroke-width="1.8827" stroke-linecap="round" stroke-linejoin="round"/>
<path d="M107.545 145.012C109.493 146.55 115.264 148.203 117.602 147.783" stroke="#1B3C87" stroke-width="1.8827" stroke-linecap="round" stroke-linejoin="round"/>
<path d="M182.713 135.027C186.196 134.022 188.663 133.224 189.512 132.77C194.111 130.306 203.161 114.2 203.432 110.319" stroke="#1B3C87" stroke-width="1.8827" stroke-linecap="round" stroke-linejoin="round"/>
<path d="M109.546 149.226C111.988 150.53 118.227 152.017 120.67 151.624C123.114 151.231 125.389 149.298 129.096 148.54C131.21 148.107 149.043 143.845 164.843 139.805" stroke="#1B3C87" stroke-width="1.8827" stroke-linecap="round" stroke-linejoin="round"/>
<path d="M180.6 100.656C178.638 104.303 174.305 114.405 173.049 118.072C169.377 119.944 135.368 134.64 125.649 140.559C123.12 140.807 115.217 138.26 113.25 138.431C111.283 138.601 110.879 139.747 110.879 139.747" stroke="#1B3C87" stroke-width="1.8827" stroke-linecap="round" stroke-linejoin="round"/>
<path fill-rule="evenodd" clip-rule="evenodd" d="M213.271 69.1763C229.491 75.4596 216.156 111.585 210.771 114.931C203.896 116.233 180.664 105.071 177.055 101.481C176.305 98.2822 193.417 61.4892 213.271 69.1763Z" fill="#46DBC9"/>
<path d="M190.517 107.67C183.591 104.64 177.163 101.088 175.396 99.3356" stroke="#1B3C87" stroke-width="1.8827" stroke-linecap="round" stroke-linejoin="round"/>
<path d="M183.335 82.4925C190.074 72.5279 200.409 62.6916 211.613 67.0335C227.834 73.3157 214.499 109.441 209.113 112.787C207.195 113.151 204.003 112.543 200.319 111.401" stroke="#1B3C87" stroke-width="1.8827" stroke-linecap="round" stroke-linejoin="round"/>
<path fill-rule="evenodd" clip-rule="evenodd" d="M156.771 268.142L156.217 278.763L158.618 290.938L115.545 296.089L135.797 279.815L134.202 269.815" fill="white"/>
<path d="M133.519 277.86L131.923 267.86" stroke="#1B3C87" stroke-width="1.8827" stroke-linecap="round" stroke-linejoin="round"/>
<path d="M154.498 266.183L153.942 276.805L156.335 288.98L113.266 294.135L124.352 285.226" stroke="#1B3C87" stroke-width="1.8827" stroke-linecap="round" stroke-linejoin="round"/>
<path fill-rule="evenodd" clip-rule="evenodd" d="M82.6558 227.153L74.7505 230.358L64.1685 240.623L38.3207 209.114L63.8777 217.334L72.606 211.815" fill="white"/>
<path d="M49.7488 224.345L35 206.365L60.5581 214.584L69.2864 209.067" stroke="#1B3C87" stroke-width="1.8827" stroke-linecap="round" stroke-linejoin="round"/>
<path d="M79.3351 224.403L71.4298 227.608L60.8478 237.873L55.5603 231.429" stroke="#1B3C87" stroke-width="1.8827" stroke-linecap="round" stroke-linejoin="round"/>
<path d="M66.1642 204.309L82.8624 229.334" stroke="#1B3C87" stroke-width="1.8827" stroke-linecap="round" stroke-linejoin="round"/>
<path fill-rule="evenodd" clip-rule="evenodd" d="M92.6492 89.366C90.9663 89.0269 87.1701 89.029 85.239 88.6868C81.6828 88.0531 78.5618 86.3773 76.2545 86.2057C73.9472 86.0341 73.0227 87.3036 72.9165 87.9807C72.4813 90.7037 81.3031 93.253 84.2349 93.5714" fill="white"/>
<path d="M92.6492 89.366C90.9663 89.0269 87.1701 89.029 85.239 88.6868C81.6828 88.0531 78.5618 86.3773 76.2545 86.2057C73.9472 86.0341 73.0227 87.3036 72.9165 87.9807C72.4813 90.7037 81.3031 93.253 84.2349 93.5714" stroke="#1B3C87" stroke-width="1.8827" stroke-linecap="round" stroke-linejoin="round"/>
<path fill-rule="evenodd" clip-rule="evenodd" d="M80.9507 108.337C83.5874 105.977 86.9462 104.369 90.6023 103.718C94.2584 103.066 98.0477 103.4 101.491 104.676C104.934 105.952 107.877 108.114 109.947 110.888C112.017 113.662 113.121 116.924 113.12 120.26C113.119 123.597 112.012 126.859 109.94 129.634C107.868 132.408 104.924 134.571 101.48 135.849C98.036 137.127 94.2465 137.462 90.5908 136.812C86.9352 136.161 83.5775 134.555 80.9425 132.197C79.1928 130.63 77.805 128.771 76.8585 126.724C75.912 124.677 75.4252 122.483 75.4259 120.268C75.4267 118.052 75.915 115.858 76.863 113.811C77.8109 111.764 79.1999 109.904 80.9507 108.337Z" fill="#D7E0FF"/>
<path d="M91.0742 103.26C95.1545 102.615 99.3578 103.192 103.034 104.901C106.71 106.609 109.654 109.355 111.41 112.713C113.166 116.072 113.637 119.855 112.749 123.478C111.861 127.101 109.665 130.362 106.499 132.756C103.334 135.15 99.3758 136.544 95.2375 136.722C91.0992 136.901 87.0112 135.853 83.6061 133.742C80.201 131.631 77.6686 128.574 76.4005 125.044C75.1324 121.514 75.1995 117.708 76.5912 114.214" stroke="#5980FF" stroke-width="2.63265" stroke-linecap="round" stroke-linejoin="round"/>
<path fill-rule="evenodd" clip-rule="evenodd" d="M184.226 55.8181C185.726 58.2516 187.689 63.2964 188.292 67.3105C190.396 67.724 199.461 65.948 201.513 64.294C200.699 60.8567 197.923 48.5703 198.235 46.5958C198.546 44.6213 183.06 53.9304 184.226 55.8181Z" fill="white"/>
<path d="M193.261 65.0756C195.855 64.4874 198.34 63.6883 199.301 62.915C198.486 59.4798 195.711 47.1912 196.022 45.2156C196.334 43.2401 180.848 52.5555 182.013 54.4401C183.514 56.8736 185.476 61.9184 186.08 65.9305" stroke="#1B3C87" stroke-width="1.8827" stroke-linecap="round" stroke-linejoin="round"/>
<path fill-rule="evenodd" clip-rule="evenodd" d="M164.179 36.8793C164.179 25.0788 172.11 15.5112 181.894 15.5112C191.679 15.5112 199.609 25.0788 199.609 36.8793C199.609 48.6799 191.679 58.2474 181.894 58.2474C172.11 58.2474 164.179 48.6809 164.179 36.8793Z" fill="white"/>
<path d="M172.425 35.2028C172.17 37.109 170.893 39.8546 169.404 40.8801" stroke="#1B3C87" stroke-width="1.8827" stroke-linecap="round" stroke-linejoin="round"/>
<path fill-rule="evenodd" clip-rule="evenodd" d="M176.924 33.8092C176.924 32.4654 177.602 31.3851 178.439 31.3851C179.275 31.3851 179.953 32.4705 179.953 33.8092C179.953 35.1478 179.275 36.2322 178.439 36.2322C177.602 36.2322 176.924 35.1478 176.924 33.8092Z" fill="#1B3C87"/>
<path d="M177.911 46.4997C177.911 45.5207 178.759 44.7268 179.804 44.7268C180.849 44.7268 181.697 45.5207 181.697 46.4997C181.697 47.4787 180.85 48.2705 179.804 48.2705C178.758 48.2705 177.911 47.4766 177.911 46.4997Z" stroke="#1B3C87" stroke-width="1.8827" stroke-linecap="round" stroke-linejoin="round"/>
<path d="M162.844 38.9821C162.661 37.7342 162.569 36.4768 162.57 35.2182C162.57 23.4146 170.502 13.8491 180.285 13.8491C190.069 13.8491 198.002 23.4146 198.002 35.2182C198.002 47.0218 190.07 56.5862 180.285 56.5862C173.573 56.5862 167.733 52.0841 164.727 45.4463" stroke="#1B3C87" stroke-width="1.8827" stroke-linecap="round" stroke-linejoin="round"/>
<path fill-rule="evenodd" clip-rule="evenodd" d="M198.866 40.4719C200.054 38.8768 204.264 16.6103 195.397 13.2061C193.627 12.5249 193.265 14.3298 192.28 16.2154C190.841 10.4749 182.288 3.36045 179.362 3.62303C176.436 3.88561 173.739 10.0448 173.786 11.8074C171.924 9.36874 166.426 5.73296 164.328 5.96349C158.735 6.57755 161.935 18.0442 162.863 20.1076C160.585 19.8802 156.311 21.803 156.053 24.7327C155.632 29.4581 160.722 32.8054 163.198 33.0773C165.674 33.3492 170.26 28.0056 174.452 26.9139C177.027 28.6259 177.596 29.1976 178.791 29.0487C179.985 28.8998 183.778 27.222 184.893 27.7978C186.008 28.3736 188.678 36.2861 190.108 36.6883C191.538 37.0904 197.677 42.0691 198.866 40.4719Z" fill="#FB5D64"/>
<path d="M161.202 18.3231C158.924 18.0936 154.65 20.0174 154.393 22.9482C153.972 27.6725 159.063 31.0198 161.538 31.2917C163.323 31.4881 166.204 28.7652 169.244 26.8217" stroke="#1B3C87" stroke-width="1.8827" stroke-linecap="round" stroke-linejoin="round"/>
<path d="M196.559 13.6073C195.814 12.619 194.885 11.8612 193.736 11.4208C191.966 10.7396 191.604 12.5446 190.619 14.4302C189.18 8.68959 180.627 1.57615 177.701 1.83563C174.775 2.09511 172.078 8.25644 172.121 10.0211C170.26 7.58449 164.762 3.94764 162.663 4.17714C159.394 4.5369 159.129 8.60379 159.662 12.3337" stroke="#1B3C87" stroke-width="1.8827" stroke-linecap="round" stroke-linejoin="round"/>
<path d="M172.787 25.1284C175.363 26.8403 175.932 27.411 177.125 27.2642C178.319 27.1174 182.114 25.4365 183.229 26.0123C184.344 26.5881 187.012 34.5016 188.443 34.9027C189.875 35.3038 196.016 40.2782 197.205 38.6873C197.898 37.7569 199.616 29.8072 199.175 22.6639" stroke="#1B3C87" stroke-width="1.8827" stroke-linecap="round" stroke-linejoin="round"/>
<path fill-rule="evenodd" clip-rule="evenodd" d="M188.911 40.5648C188.911 39.6409 189.217 38.7378 189.791 37.9697C190.364 37.2016 191.179 36.603 192.132 36.2496C193.085 35.8962 194.133 35.8038 195.145 35.9842C196.157 36.1645 197.086 36.6096 197.816 37.2629C198.545 37.9163 199.042 38.7487 199.243 39.6549C199.444 40.561 199.34 41.5003 198.946 42.3538C198.551 43.2074 197.882 43.9369 197.025 44.4502C196.167 44.9635 195.158 45.2374 194.127 45.2374C193.442 45.2374 192.763 45.1166 192.131 44.8817C191.498 44.6469 190.923 44.3027 190.438 43.8688C189.954 43.4349 189.57 42.9198 189.308 42.3529C189.046 41.786 188.911 41.1784 188.911 40.5648Z" fill="white"/>
<path d="M188.91 36.5826C189.61 36.0363 190.46 35.6672 191.372 35.5135C192.285 35.3598 193.226 35.427 194.1 35.7083C194.974 35.9895 195.748 36.4746 196.342 37.1134C196.936 37.7522 197.33 38.5215 197.481 39.3419C197.632 40.1623 197.537 41.004 197.203 41.7802C196.87 42.5563 196.312 43.2386 195.585 43.7568C194.859 44.2749 193.992 44.61 193.073 44.7275C192.154 44.8449 191.216 44.7405 190.357 44.4249" stroke="#1B3C87" stroke-width="1.8827" stroke-linecap="round" stroke-linejoin="round"/>
<path d="M267.3 14.1062L240.1 38.7935L305.137 52.3734L267.3 14.1062Z" stroke="#B6C6FC" stroke-width="1.15833" stroke-linecap="round" stroke-linejoin="round"/>
<path d="M32.4857 108.471L28.2271 146.969L76.7241 151.337L80.9827 112.839L32.4857 108.471Z" stroke="#B6C6FC" stroke-width="1.15833" stroke-linecap="round" stroke-linejoin="round"/>
<path d="M24.4965 168.647C37.5129 168.647 48.0648 159.126 48.0648 147.381C48.0648 135.635 37.5129 126.114 24.4965 126.114C11.4801 126.114 0.928223 135.635 0.928223 147.381C0.928223 159.126 11.4801 168.647 24.4965 168.647Z" stroke="#B6C6FC" stroke-width="1.15833" stroke-linecap="round" stroke-linejoin="round"/>
</svg>
