<svg width="300" height="321" viewBox="0 0 300 321" fill="none" xmlns="http://www.w3.org/2000/svg">
<g clip-path="url(#clip0)">
<path d="M474.893 -28.9655H103.317V0.589025H474.893V-28.9655Z" fill="#EAF0FF"/>
<path d="M78.5543 225.992C78.3931 229.556 75.765 255.063 72.5542 264.695C83.3086 263.276 141.915 251.678 159.544 241.488C158.143 231.954 83.7053 225 78.5543 225.992Z" fill="#3C3744"/>
<path d="M113.489 35.2078C113.489 38.3584 112.555 41.4384 110.804 44.0581C109.054 46.6778 106.566 48.7196 103.655 49.9253C100.744 51.131 97.5414 51.4465 94.4512 50.8318C91.3611 50.2172 88.5226 48.7 86.2947 46.4721C84.0668 44.2442 82.5496 41.4057 81.935 38.3156C81.3203 35.2254 81.6358 32.0224 82.8415 29.1115C84.0472 26.2007 86.089 23.7127 88.7087 21.9623C91.3284 20.2119 94.4083 19.2776 97.559 19.2776C99.6512 19.2768 101.723 19.6883 103.656 20.4885C105.589 21.2888 107.346 22.4622 108.825 23.9416C110.305 25.421 111.478 27.1775 112.278 29.1106C113.079 31.0437 113.49 33.1155 113.489 35.2078Z" fill="#FB5D64"/>
<path d="M163.294 62.8281C164.428 62.2951 166.077 58.7061 166.077 53.3878C166.077 40.1664 156.036 33.9679 139.975 33.9679C128.762 33.9679 115.547 38.1581 107.123 53.8899C100.832 65.5803 98.2718 91.3909 93.0217 100.676C89.6993 106.546 82.6516 118.435 77.2403 129.617C75.2072 132.456 64.9858 154.114 80.5937 161.229C96.2015 168.345 168.681 165.42 170.608 162.364C172.536 159.308 161.701 137.483 158.137 133.063C154.573 128.644 149.459 123.022 152.372 101.284C155.286 79.5455 152.651 66.7332 155.149 65.6981C157.647 64.6629 160.678 64.6009 163.294 62.8281Z" fill="#FB5D64"/>
<path d="M123.01 78.0394C123.01 79.3769 122.613 80.6844 121.87 81.7965C121.127 82.9086 120.071 83.7754 118.835 84.2872C117.6 84.7991 116.24 84.933 114.928 84.672C113.616 84.4111 112.411 83.7671 111.466 82.8213C110.52 81.8755 109.876 80.6705 109.615 79.3587C109.354 78.0469 109.488 76.6872 110 75.4515C110.512 74.2158 111.378 73.1596 112.49 72.4165C113.603 71.6735 114.91 71.2769 116.248 71.2769C118.041 71.2785 119.76 71.9915 121.028 73.2594C122.295 74.5273 123.008 76.2464 123.01 78.0394Z" fill="white"/>
<path d="M75.9882 223.431C75.827 226.996 73.1988 252.502 69.988 262.135" stroke="#1B3C87" stroke-width="2.28725" stroke-linecap="round" stroke-linejoin="round"/>
<path d="M225.818 118.045C231.056 109.751 229.538 100.187 227.287 103.131C226.537 104.116 216.75 123.946 214.797 125.96C213.279 126.01 212.07 126.208 211.562 126.623C209.578 128.235 210.322 139.529 209.578 140.52C208.835 141.512 180.538 184.951 179.292 186.315C179.168 186.811 175.573 170.062 174.476 167.1C171.65 169.381 164.614 173.416 162.494 174.104C162.736 176.019 163.926 199.698 162.494 207.39C163.697 209.77 170.962 216.985 174.048 216.985C179.993 216.985 186.315 214.698 187.977 213.551C194.913 208.791 221.678 147.32 223.637 146.043C227.548 143.477 234.062 134.626 234.974 129.022C234.974 126.543 237.007 124.925 225.8 118.026" fill="white"/>
<path d="M146.806 126.524C164.267 120.822 180.154 160.467 178.914 163.666C177.675 166.864 160.046 176.422 156.203 175.914C152.36 175.406 140.025 128.725 146.806 126.512" fill="#46DBC9"/>
<path d="M144.258 123.964C161.72 118.261 177.606 157.913 176.367 161.106C175.127 164.298 157.498 173.862 153.655 173.366C149.812 172.87 137.44 126.177 144.258 123.964Z" stroke="#1B3C87" stroke-width="2.28725" stroke-linecap="round" stroke-linejoin="round"/>
<path d="M125.787 116.613C175.208 117.772 162.724 228.148 160.455 232.091C157.399 237.397 94.1312 242.213 79.0441 227.411C75.5543 223.989 78.8705 115.515 125.787 116.613Z" fill="#46DBC9"/>
<path d="M117.5 114.487C119.389 114.151 121.308 114.007 123.227 114.059C138.413 114.412 147.754 125.08 153.346 139.808" stroke="#1B3C87" stroke-width="2.28725" stroke-linecap="round" stroke-linejoin="round"/>
<path d="M160.623 179.745C161.962 204.768 158.906 227.771 157.895 229.531C154.839 234.837 91.5712 239.653 76.4841 224.851C73.3104 221.752 75.765 131.663 111.574 116.272" stroke="#1B3C87" stroke-width="2.28725" stroke-linecap="round" stroke-linejoin="round"/>
<path d="M159.135 50.6173C159.234 56.7538 116.458 62.5618 116.223 71.2769C115.987 79.992 115.845 85.0252 115.845 85.0252C117.376 93.1515 114.059 121.882 113.123 124.882C116.712 128.223 134.713 127.981 136.678 125.96C136.424 123.939 136.461 110.179 136.975 108.604C137.731 108.706 138.493 108.758 139.256 108.759C153.023 108.759 164.187 92.513 164.187 72.467C164.187 61.9916 164.013 59.2208 159.147 50.5987" fill="white"/>
<path d="M100.28 119.966C119.415 125.91 107.96 172.263 104.303 174.091C100.646 175.92 64.806 165.68 64.0746 161.657C63.3432 157.634 75.9014 112.385 100.28 119.966Z" fill="#46DBC9"/>
<path d="M108.481 141.295C108.326 155.384 103.801 170.503 101.743 171.531C98.0859 173.36 62.2462 163.12 61.5147 159.097C61.2978 157.913 62.2276 153.178 64.2731 147.264" stroke="#1B3C87" stroke-width="2.28725" stroke-linecap="round" stroke-linejoin="round"/>
<path d="M74.3518 127.491C80.2156 119.718 88.0381 114.394 97.7202 117.406C98.504 117.646 99.2602 117.968 99.9764 118.367" stroke="#1B3C87" stroke-width="2.28725" stroke-linecap="round" stroke-linejoin="round"/>
<path d="M190.338 163.405C198.204 151.43 206.634 138.531 207.037 137.991C207.781 137 207.037 125.706 209.021 124.094C211.004 122.483 223.649 124.094 223.649 125.532C223.649 126.97 218.486 131.731 217.221 132.084" stroke="#1B3C87" stroke-width="2.28725" stroke-linecap="round" stroke-linejoin="round"/>
<path d="M172.071 164.961C173.168 167.93 176.627 184.288 176.751 183.792C177.067 183.439 179.144 180.358 182.076 175.945" stroke="#1B3C87" stroke-width="2.28725" stroke-linecap="round" stroke-linejoin="round"/>
<path d="M223.259 115.485C228.496 107.191 226.978 97.6267 224.728 100.571C223.978 101.557 214.19 121.386 212.238 123.4" stroke="#1B3C87" stroke-width="2.28725" stroke-linecap="round" stroke-linejoin="round"/>
<path d="M225.007 117.648C224.306 118.974 221.095 124.324 221.095 124.324" stroke="#1B3C87" stroke-width="2.28725" stroke-linecap="round" stroke-linejoin="round"/>
<path d="M228.44 119.762C227.078 122.845 225.476 125.817 223.649 128.65" stroke="#1B3C87" stroke-width="2.28725" stroke-linecap="round" stroke-linejoin="round"/>
<path d="M231.521 122.067C229.926 125.528 228.095 128.875 226.042 132.084" stroke="#1B3C87" stroke-width="2.28725" stroke-linecap="round" stroke-linejoin="round"/>
<path d="M223.221 141.748C222.568 142.396 221.856 142.983 221.095 143.502C219.136 144.785 192.371 206.249 185.435 211.016C183.774 212.157 177.452 214.444 171.507 214.444C168.408 214.444 161.819 208.245 160.623 205.884" stroke="#1B3C87" stroke-width="2.28725" stroke-linecap="round" stroke-linejoin="round"/>
<path d="M232.432 126.481C232.054 128.818 230.697 131.719 228.967 134.496" stroke="#1B3C87" stroke-width="2.28725" stroke-linecap="round" stroke-linejoin="round"/>
<path d="M156.036 92.8848C151.461 101.023 144.513 106.218 136.727 106.218C131.769 106.218 127.126 104.098 123.233 100.447" stroke="#1B3C87" stroke-width="2.28725" stroke-linecap="round" stroke-linejoin="round"/>
<path d="M156.587 48.0572C159.976 54.8417 161.699 62.3361 161.614 69.9193C161.625 73.745 161.21 77.5601 160.375 81.2936" stroke="#1B3C87" stroke-width="2.28725" stroke-linecap="round" stroke-linejoin="round"/>
<path d="M117.5 81.021C116.534 81.6859 115.412 82.088 114.244 82.1877C113.076 82.2874 111.903 82.0812 110.839 81.5894C109.774 81.0976 108.857 80.3372 108.176 79.383C107.495 78.4288 107.074 77.3138 106.955 76.1476C106.836 74.9815 107.023 73.8044 107.497 72.7323C107.971 71.6602 108.716 70.73 109.659 70.0334C110.601 69.3367 111.709 68.8975 112.873 68.759C114.037 68.6206 115.217 68.7877 116.297 69.2438" stroke="#1B3C87" stroke-width="2.28725" stroke-linecap="round" stroke-linejoin="round"/>
<path d="M138.103 67.8552C138.103 69.2871 137.484 70.4524 136.69 70.4524C135.897 70.4524 135.283 69.2871 135.283 67.8552C135.283 66.4234 135.903 65.2518 136.69 65.2518C137.477 65.2518 138.103 66.4172 138.103 67.8552Z" fill="#1B3C87"/>
<path d="M150.978 79.9982C151.214 80.4649 151.506 80.9018 151.846 81.2998" stroke="#1B3C87" stroke-width="2.28725" stroke-linecap="round" stroke-linejoin="round"/>
<path d="M149.595 72.002C149.462 73.9058 149.636 75.8187 150.11 77.6674" stroke="#1B3C87" stroke-width="2.28725" stroke-linecap="round" stroke-linejoin="round"/>
<path d="M130.176 85.1304C130.448 86.9527 132.457 89.3206 135.277 90.2317" stroke="#1B3C87" stroke-width="2.28725" stroke-linecap="round" stroke-linejoin="round"/>
<path d="M134.118 123.4C133.864 121.379 133.901 107.619 134.415 106.044" stroke="#1B3C87" stroke-width="2.28725" stroke-linecap="round" stroke-linejoin="round"/>
<path d="M112.299 110.129C111.679 116.234 110.935 121.168 110.576 122.321C112.002 123.648 115.69 124.404 119.75 124.714" stroke="#1B3C87" stroke-width="2.28725" stroke-linecap="round" stroke-linejoin="round"/>
<path d="M113.297 82.4712C113.917 85.6262 113.756 91.8867 113.297 98.5439" stroke="#1B3C87" stroke-width="2.28725" stroke-linecap="round" stroke-linejoin="round"/>
<path d="M83.2094 43.3588C81.4121 41.3821 80.1409 38.985 79.5131 36.3881C78.8853 33.7913 78.9209 31.0783 79.6167 28.4988C80.3125 25.9193 81.6461 23.5564 83.4947 21.6276C85.3433 19.6988 87.6475 18.2661 90.1951 17.4614" stroke="#1B3C87" stroke-width="2.28725" stroke-linecap="round" stroke-linejoin="round"/>
<path d="M109.677 26.4553C110.828 29.1772 111.199 32.1654 110.75 35.0861C110.3 38.0068 109.048 40.7452 107.133 42.9955C105.218 45.2459 102.714 46.9196 99.903 47.8298C97.0916 48.74 94.0825 48.8509 91.2117 48.1501" stroke="#1B3C87" stroke-width="2.28725" stroke-linecap="round" stroke-linejoin="round"/>
<path d="M150.575 33.2303C158.757 35.9577 163.517 41.7409 163.517 50.8279C163.517 56.1462 161.868 59.7352 160.728 60.2682" stroke="#1B3C87" stroke-width="2.28725" stroke-linecap="round" stroke-linejoin="round"/>
<path d="M94.999 84.6593C97.8008 73.3595 100.336 59.1525 104.551 51.299C112.454 36.5527 124.56 31.9534 135.283 31.4637" stroke="#1B3C87" stroke-width="2.28725" stroke-linecap="round" stroke-linejoin="round"/>
<path d="M74.6803 127.057C78.3994 119.365 82.8995 111.332 86.4574 105.164" stroke="#1B3C87" stroke-width="2.28725" stroke-linecap="round" stroke-linejoin="round"/>
<path d="M149.41 118.367C149.676 120.815 150.079 122.867 150.649 123.983" stroke="#1B3C87" stroke-width="2.28725" stroke-linecap="round" stroke-linejoin="round"/>
<path d="M149.546 101.03C149.093 102.598 148.87 107.65 149.031 112.701" stroke="#1B3C87" stroke-width="2.28725" stroke-linecap="round" stroke-linejoin="round"/>
<path d="M158.255 44.0157C158.255 56.8653 113.675 58.0244 113.675 68.7168" stroke="#1B3C87" stroke-width="2.28725" stroke-linecap="round" stroke-linejoin="round"/>
<path d="M180.638 231.936C184.933 232.655 187.382 225.582 189.997 225.96C191.906 226.233 201.037 227.405 201.44 228.037C201.843 228.669 200.349 235.252 200.349 235.252" fill="#EAF0FF"/>
<path d="M135.396 224.311L128.611 264.642L193.563 275.569L200.348 235.238L135.396 224.311Z" fill="#EAF0FF"/>
<path d="M194.057 254.895L191.008 273.02L153.346 266.685" stroke="#1B3C87" stroke-width="2.28725" stroke-linecap="round" stroke-linejoin="round"/>
<path d="M197.795 232.692L196.518 240.273" stroke="#1B3C87" stroke-width="2.28725" stroke-linecap="round" stroke-linejoin="round"/>
<path d="M131.973 263.09L126.054 262.073L132.872 221.74L188.181 231.037" stroke="#1B3C87" stroke-width="2.28725" stroke-linecap="round" stroke-linejoin="round"/>
<path d="M178.078 229.376C182.373 230.095 184.828 223.023 187.437 223.401C189.346 223.673 198.477 224.845 198.88 225.477C199.283 226.109 197.789 232.692 197.789 232.692" stroke="#1B3C87" stroke-width="2.28725" stroke-linecap="round" stroke-linejoin="round"/>
<path d="M180.969 236.501L178.072 253.721L187.51 255.309L190.407 238.089L180.969 236.501Z" fill="#FB5D64"/>
<path d="M138.438 232.692L175.524 238.928" stroke="#1B3C87" stroke-width="2.28725" stroke-linecap="round" stroke-linejoin="round"/>
<path d="M168.6 245.864L174.117 246.794" stroke="#1B3C87" stroke-width="2.28725" stroke-linecap="round" stroke-linejoin="round"/>
<path d="M137.037 240.558L158.342 244.141" stroke="#1B3C87" stroke-width="2.28725" stroke-linecap="round" stroke-linejoin="round"/>
<path d="M178.71 234.434C177.743 226.996 175.505 219.099 159.693 219.781C157.554 218.064 116.024 206.286 90.9824 199.79C93.8957 193.772 97.2925 175.43 97.466 173.757C95.6065 173.41 68.1657 164.967 68.1657 164.967C68.1657 164.967 56.6922 212.944 59.184 216.954C74.5378 226.735 132.134 233.783 158.137 231.954C159.959 233.386 159.711 234.285 162.296 234.651C164.881 235.017 178.71 234.434 178.71 234.434Z" fill="white"/>
<path d="M129.159 208.363C143.961 212.603 156.005 216.303 157.127 217.221C172.951 216.539 175.183 224.405 176.15 231.874" stroke="#1B3C87" stroke-width="2.28725" stroke-linecap="round" stroke-linejoin="round"/>
<path d="M94.906 171.222C94.7263 172.87 91.3295 191.212 88.4224 197.255C97.1375 199.505 107.855 202.4 118.212 205.313" stroke="#1B3C87" stroke-width="2.28725" stroke-linecap="round" stroke-linejoin="round"/>
<path d="M162.457 224.882C163.175 227.43 163.437 230.084 163.232 232.723" stroke="#1B3C87" stroke-width="2.28725" stroke-linecap="round" stroke-linejoin="round"/>
<path d="M167.23 224.882C167.954 227.429 168.216 230.084 168.005 232.723" stroke="#1B3C87" stroke-width="2.28725" stroke-linecap="round" stroke-linejoin="round"/>
<path d="M171.079 224.882C171.798 227.43 172.058 230.085 171.848 232.723" stroke="#1B3C87" stroke-width="2.28725" stroke-linecap="round" stroke-linejoin="round"/>
<path d="M57.2625 202.146C56.1777 208.828 55.719 213.824 56.6426 214.394C78.108 228.031 142.982 230.163 155.596 229.395" stroke="#1B3C87" stroke-width="2.28725" stroke-linecap="round" stroke-linejoin="round"/>
<path d="M65.6056 162.432C65.3701 163.263 63.1572 172.56 60.9319 183.079" stroke="#1B3C87" stroke-width="2.28725" stroke-linecap="round" stroke-linejoin="round"/>
</g>
<path d="M260.09 32.6759L232 61.7885L299.166 77.8026L260.09 32.6759Z" stroke="#B6C6FC" stroke-width="1.15833" stroke-linecap="round" stroke-linejoin="round"/>
<path d="M32.5575 103.471L28.2989 141.969L76.7959 146.337L81.0545 107.839L32.5575 103.471Z" stroke="#B6C6FC" stroke-width="1.15833" stroke-linecap="round" stroke-linejoin="round"/>
<path d="M24.5682 163.647C37.5846 163.647 48.1365 154.126 48.1365 142.381C48.1365 130.635 37.5846 121.114 24.5682 121.114C11.5519 121.114 1 130.635 1 142.381C1 154.126 11.5519 163.647 24.5682 163.647Z" stroke="#B6C6FC" stroke-width="1.15833" stroke-linecap="round" stroke-linejoin="round"/>
<defs>
<clipPath id="clip0">
<rect width="183" height="320.25" fill="white" transform="translate(55 0.375)"/>
</clipPath>
</defs>
</svg>
