<svg width="282" height="258" viewBox="0 0 282 258" fill="none" xmlns="http://www.w3.org/2000/svg">
<path d="M38.276 1C11.695 19.7711 21.588 95.7879 76.0874 105.378C139.912 116.609 144.225 57.8102 192.614 63.0833C234.693 67.6723 247.324 108.73 221.268 134.475" stroke="white" stroke-width="1.75949" stroke-linecap="round" stroke-linejoin="round" stroke-dasharray="10.56 10.56"/>
<path d="M96.4357 130.927C93.3122 129.848 77.7174 118.495 76.5021 116.704C75.2868 114.913 67.2168 103.528 67.2168 103.528L80.8012 94.1814C80.8012 94.1814 93.0396 104.108 95.422 106.106C97.8044 108.105 107.01 111.295 108.01 111.292C109.009 111.29 96.4357 130.927 96.4357 130.927Z" fill="white"/>
<path d="M92.855 127.696C90.9922 126.727 75.9937 115.474 74.5143 114.141C73.0349 112.809 67.1315 104.328 66.1831 102.301" stroke="#1B3C87" stroke-width="1.59234" stroke-linecap="round" stroke-linejoin="round"/>
<path d="M195.453 206.572C192.256 207.853 134.923 219.719 124.976 219.826C127.267 231.403 135.78 254.051 136.377 256.349C141.468 255.234 203.481 234.185 205.778 232.804C203.873 229.491 196.507 213.306 195.453 206.572Z" fill="#3B3744"/>
<path d="M128.513 25.0905L20.3851 77.8455C9.2498 83.2784 5.1034 95.8275 11.1239 105.875C17.1443 115.922 31.0519 119.663 42.1872 114.23L150.315 61.475C161.45 56.0421 165.596 43.4929 159.576 33.4457C153.555 23.3984 139.648 19.6577 128.513 25.0905Z" fill="#C7D4FF"/>
<path d="M77.9786 80.9423L66.3167 77.5652L70.062 67.0394" stroke="white" stroke-width="1.55422" stroke-linecap="round" stroke-linejoin="round"/>
<path d="M97.3982 54.3615L109.06 57.741L105.318 68.2642" stroke="white" stroke-width="1.55422" stroke-linecap="round" stroke-linejoin="round"/>
<path d="M80.9374 53.3981L89.3254 84.6986" stroke="white" stroke-width="1.55422" stroke-linecap="round" stroke-linejoin="round"/>
<path d="M70.5134 54.5099C68.3355 50.2335 54.7341 54.7456 48.9329 59.0989C50.5457 63.8826 52.1841 68.0924 53.1184 69.0481C54.2627 69.1557 71.229 61.4075 70.5134 54.5099Z" fill="white"/>
<path d="M132.234 119.494C124.135 113.601 112.979 109.655 109.753 108.453C107.408 109.368 104.392 114.2 101.734 119.684C96.9809 127.737 95.4873 137.524 95.4873 137.524C102.847 141.652 118.116 144.289 120.808 144.289C123.499 144.289 132.234 119.494 132.234 119.494Z" fill="#46DBC9"/>
<path d="M147.201 113.308C175.676 107.146 188.69 180.739 194.874 206.318C188.818 210.387 135.09 222.594 124.397 219.56C104.685 172.717 97.8441 123.988 147.201 113.308Z" fill="#46DBC9"/>
<path d="M144.929 110.746C173.404 104.584 186.418 178.177 192.603 203.756C186.546 207.825 132.819 220.031 122.125 216.998C102.413 170.155 95.5724 121.426 144.929 110.746Z" stroke="#1B3C87" stroke-width="1.55422" stroke-linecap="round" stroke-linejoin="round"/>
<path d="M162.532 159.26C161.038 161.21 147.405 175.084 145.244 176.058C143.084 177.032 134.511 176.906 132.861 176.058C123.221 171.108 92.1364 127.534 89.8904 123.409C87.6443 119.284 84.4072 113.437 81.4967 111.261C81.0281 108.061 83.5695 103.872 79.0575 98.8036C79.8866 95.2319 77.5838 79.4484 90.6996 85.8028C94.1525 87.5067 98.9002 94.1865 98.2443 99.6876C97.5884 105.189 96.7961 111.438 98.108 114.005C99.4199 116.573 135.05 150.797 135.971 151.212C137.106 149.872 141.63 144.519 141.63 144.519L162.532 159.26Z" fill="white"/>
<path d="M175.898 122.625C189.675 132.479 172.919 155.324 166.714 161.594C163.875 161.707 139.211 148.604 137.947 143.228C141.522 138.413 160.544 111.64 175.898 122.625Z" fill="#46DBC9"/>
<path d="M99.7609 137.235C97.5982 136.461 95.5089 135.529 93.5137 134.45C93.3461 133.837 93.6046 132.466 94.4366 129.889" stroke="#1B3C87" stroke-width="1.59234" stroke-linecap="round" stroke-linejoin="round"/>
<path d="M100.005 116.078C102.663 110.595 105.42 106.293 107.765 105.379C110.991 106.58 121.634 110.167 129.732 116.05" stroke="#1B3C87" stroke-width="1.55422" stroke-linecap="round" stroke-linejoin="round"/>
<path d="M118.621 134.268C108.941 125.392 97.9491 114.854 96.1233 110.931C94.9051 108.625 95.7655 93.482 98.0769 90.2356" stroke="#1B3C87" stroke-width="1.59234" stroke-linecap="round" stroke-linejoin="round"/>
<path d="M137.97 143.553C136.482 144.968 135.161 146.792 133.994 148.137C133.659 147.789 131.742 146.087 128.928 143.571" stroke="#1B3C87" stroke-width="1.59234" stroke-linecap="round" stroke-linejoin="round"/>
<path d="M145.864 170.967C144.657 172.03 143.717 172.776 143.257 172.983C141.096 173.959 132.523 173.831 130.874 172.983C121.233 168.033 90.1488 124.459 87.9027 120.334C85.6566 116.209 82.4196 110.362 79.509 108.187" stroke="#1B3C87" stroke-width="1.59234" stroke-linecap="round" stroke-linejoin="round"/>
<path d="M159.675 157.187C159.201 157.805 157.599 159.514 155.563 161.594" stroke="#1B3C87" stroke-width="1.59234" stroke-linecap="round" stroke-linejoin="round"/>
<path d="M92.5824 97.3636C92.2984 93.0078 89.4362 83.7402 87.2697 81.734" stroke="#1B3C87" stroke-width="1.59234" stroke-linecap="round" stroke-linejoin="round"/>
<path d="M87.6898 97.3635C86.9203 94.5271 83.8451 85.6336 80.6989 81.2214" stroke="#1B3C87" stroke-width="1.59234" stroke-linecap="round" stroke-linejoin="round"/>
<path d="M83.4958 99.5082C83.3567 97.9965 80.6989 91.6243 78.8135 89.8589" stroke="#1B3C87" stroke-width="1.59234" stroke-linecap="round" stroke-linejoin="round"/>
<path d="M80.2788 102.598C79.9295 101.023 77.763 96.7974 76.0876 95.3472" stroke="#1B3C87" stroke-width="1.59234" stroke-linecap="round" stroke-linejoin="round"/>
<path d="M202.927 229.986C201.507 227.211 193.957 209.58 192.603 203.754" stroke="#1B3C87" stroke-width="1.55422" stroke-linecap="round" stroke-linejoin="round"/>
<path d="M164.008 242.433C161.737 240.768 152.852 230.391 149.075 225.707" stroke="#1B3C87" stroke-width="1.55422" stroke-linecap="round" stroke-linejoin="round"/>
<path d="M133.526 253.53C132.208 250.914 123.289 223.452 122.125 217.008" stroke="#1B3C87" stroke-width="1.55422" stroke-linecap="round" stroke-linejoin="round"/>
<path d="M104.261 108.73C101.939 107.802 97.2137 105.681 95.5696 105.379" stroke="#1B3C87" stroke-width="1.59234" stroke-linecap="round" stroke-linejoin="round"/>
<path d="M46.1501 112.294L64.559 125.897L62.0232 104.548" fill="#C7D4FF"/>
<path d="M66.9641 50.9894C65.8453 49.921 55.9494 46.1032 63.6049 61.4948" stroke="#1B3C87" stroke-width="1.59234" stroke-linecap="round" stroke-linejoin="round"/>
<path d="M59.8367 53.1622C58.7009 52.0937 48.8221 48.2759 56.4747 63.6675" stroke="#1B3C87" stroke-width="1.59234" stroke-linecap="round" stroke-linejoin="round"/>
<path d="M51.517 56.7494C50.4322 55.8501 42.0129 53.4185 51.1137 67.5109" stroke="#1B3C87" stroke-width="1.59234" stroke-linecap="round" stroke-linejoin="round"/>
<path d="M257.83 169.565L279.524 161.604L217.451 141.832L238.024 198.252L247.312 178.853" fill="#D7E0FF"/>
<path d="M257.83 169.565L282 191.849L271.482 201.137L247.312 178.854" fill="#D7E0FF"/>
<path d="M148.059 150.892C142.013 147.202 136.538 143.125 135.959 140.663" stroke="#1B3C87" stroke-width="1.55422" stroke-linecap="round" stroke-linejoin="round"/>
<path d="M178.005 137.652C175.216 146.515 168.262 155.46 164.727 159.032C163.571 159.078 158.835 156.951 153.525 154.051" stroke="#1B3C87" stroke-width="1.55422" stroke-linecap="round" stroke-linejoin="round"/>
<path d="M143.254 131.542C151.066 122.804 163.355 112.509 173.921 120.063C174.342 120.362 174.744 120.683 175.125 121.023" stroke="#1B3C87" stroke-width="1.55422" stroke-linecap="round" stroke-linejoin="round"/>
<path d="M224.965 3.40332L197.765 28.0906L262.802 41.6705L224.965 3.40332Z" stroke="#B6C6FC" stroke-width="1.15833" stroke-linecap="round" stroke-linejoin="round"/>
<path d="M38.8853 196.78L34.6267 235.278L83.1238 239.646L87.3823 201.148L38.8853 196.78Z" stroke="#B6C6FC" stroke-width="1.15833" stroke-linecap="round" stroke-linejoin="round"/>
<path d="M30.8961 256.956C43.9125 256.956 54.4644 247.435 54.4644 235.689C54.4644 223.944 43.9125 214.423 30.8961 214.423C17.8797 214.423 7.32782 223.944 7.32782 235.689C7.32782 247.435 17.8797 256.956 30.8961 256.956Z" stroke="#B6C6FC" stroke-width="1.15833" stroke-linecap="round" stroke-linejoin="round"/>
<path d="M162.563 45.2398C161.336 41.2375 156.151 40.3868 153.536 48.827C152.4 45.8701 150.029 41.668 147.556 41.668C146.011 41.668 143.865 43.108 142.209 45.7318" stroke="#1B3C87" stroke-width="1.59234" stroke-linecap="round" stroke-linejoin="round"/>
<path d="M160.976 95.5651C159.775 99.1958 155.814 111.223 155.691 119.566C153.772 120.59 140.86 121.029 137.379 118.7C138.339 115.015 139.96 104.559 139.54 100.928C141.343 100.605 160.976 95.5651 160.976 95.5651Z" fill="white"/>
<path d="M137.649 107.054C138.066 103.764 138.316 100.577 138.12 98.8779C139.923 98.5551 159.556 93.5151 159.556 93.5151C158.355 97.1458 154.394 109.173 154.271 117.516C153.096 118.146 147.797 118.553 143.067 118.241" stroke="#1B3C87" stroke-width="1.55422" stroke-linecap="round" stroke-linejoin="round"/>
<path d="M166.375 86.1224C169.094 74.7072 163.275 63.8973 153.378 61.9779C143.481 60.0585 133.254 67.7563 130.535 79.1716C127.816 90.5868 133.635 101.397 143.532 103.316C153.429 105.236 163.656 97.5376 166.375 86.1224Z" fill="white"/>
<path d="M147.749 101.576C145.792 101.924 143.776 101.909 141.826 101.532C136.8 100.559 132.824 97.2894 130.487 92.8209" stroke="#1B3C87" stroke-width="1.59234" stroke-linecap="round" stroke-linejoin="round"/>
<path d="M128.46 86.6175C127.977 83.5469 128.106 80.4231 128.841 77.3934C131.564 65.9709 141.786 58.2738 151.685 60.1878C161.583 62.1019 167.399 72.9197 164.679 84.3346C164.113 86.7335 163.18 89.0498 161.907 91.2168" stroke="#1B3C87" stroke-width="1.59234" stroke-linecap="round" stroke-linejoin="round"/>
<path d="M166.825 87.8603C167.189 86.756 170.88 80.4605 170.517 70.4371C170.281 63.8418 164.505 50.8897 164.52 49.1705C164.568 43.7103 158.221 41.2275 155.231 50.8692C154.096 47.9124 151.725 43.7103 149.251 43.7103C146.778 43.7103 142.755 47.3948 141.718 53.7236C141.374 51.6994 139.361 49.3678 138.211 49.3678C137.061 49.3678 134.301 49.5241 134.418 58.1357C133.498 57.098 131.484 56.4754 130.442 56.4754C128.307 56.4754 125.311 65.7277 133.821 71.7079C134.298 70.8931 135.636 69.1713 135.715 69.1713C137.28 69.5531 152.409 72.9583 161.592 74.0985C161.362 75.3412 158.207 88.342 161.708 92.2776C162.854 91.9011 163.9 91.3141 164.781 90.5537C165.662 89.7933 166.358 88.8761 166.825 87.8603V87.8603Z" fill="#FB5D64"/>
<path d="M139.912 80.5372C139.523 81.9466 137.158 84.2784 135.959 84.6986" stroke="#1B3C87" stroke-width="1.59234" stroke-linecap="round" stroke-linejoin="round"/>
<path d="M151.032 80.0186C151.408 79.0983 151.222 78.1894 150.617 77.9886C150.012 77.7878 149.217 78.371 148.842 79.2914C148.467 80.2117 148.653 81.1206 149.258 81.3214C149.863 81.5222 150.657 80.9389 151.032 80.0186Z" fill="#1B3C87"/>
<path d="M146.559 91.2222C146.102 92.1317 143.353 94.2378 141.888 94.4017" stroke="#1B3C87" stroke-width="1.59234" stroke-linecap="round" stroke-linejoin="round"/>
<path d="M159.902 72.0563C159.274 74.859 158.814 77.6901 158.522 80.5374" stroke="#1B3C87" stroke-width="1.59234" stroke-linecap="round" stroke-linejoin="round"/>
<path d="M140.023 51.6838C139.679 49.6596 137.666 47.328 136.516 47.328C135.366 47.328 132.606 47.4843 132.722 56.096C131.802 55.0583 129.789 54.4357 128.747 54.4357C126.612 54.4357 123.616 63.688 132.126 69.6682C132.603 68.8535 133.94 67.1316 134.02 67.1316C135.306 67.4468 145.776 69.8066 154.561 71.2697" stroke="#1B3C87" stroke-width="1.59234" stroke-linecap="round" stroke-linejoin="round"/>
<path d="M166.354 82.9355C168.19 78.271 169.028 73.3339 168.821 68.3871C168.688 64.7026 166.834 59.0323 165.212 54.4485" stroke="#1B3C87" stroke-width="1.59234" stroke-linecap="round" stroke-linejoin="round"/>
<path d="M162.731 94.4043C165.318 94.4043 167.416 92.5115 167.416 90.1766C167.416 87.8418 165.318 85.949 162.731 85.949C160.143 85.949 158.045 87.8418 158.045 90.1766C158.045 92.5115 160.143 94.4043 162.731 94.4043Z" fill="white"/>
<path d="M160.487 84.9138C161.206 84.6979 161.972 84.6426 162.72 84.7525C163.468 84.8624 164.175 85.1343 164.78 85.5449C165.386 85.9554 165.873 86.4924 166.198 87.1098C166.523 87.7271 166.678 88.4065 166.648 89.0896C166.619 89.7727 166.406 90.4391 166.029 91.0318C165.651 91.6245 165.12 92.1258 164.481 92.4927C163.842 92.8595 163.113 93.0811 162.359 93.1383C161.604 93.1954 160.845 93.0866 160.146 92.821" stroke="#1B3C87" stroke-width="1.59234" stroke-linecap="round" stroke-linejoin="round"/>
</svg>
