<svg width="564" height="526" viewBox="0 0 564 526" fill="none" xmlns="http://www.w3.org/2000/svg">
<path fill-rule="evenodd" clip-rule="evenodd" d="M435.153 461.082C435.153 425.508 463.996 396.658 499.576 396.658C535.156 396.658 564 425.502 564 461.082C564 496.662 535.156 525.511 499.576 525.511C463.996 525.511 435.153 496.661 435.153 461.082Z" fill="#F3F6FF"/>
<path fill-rule="evenodd" clip-rule="evenodd" d="M80.4738 323.553C80.4738 234.347 152.79 162.03 241.997 162.03C331.204 162.03 403.52 234.345 403.52 323.553C403.52 412.762 331.204 485.077 241.997 485.077C152.79 485.077 80.4738 412.76 80.4738 323.553Z" fill="#EAF0FF"/>
<path fill-rule="evenodd" clip-rule="evenodd" d="M91.1909 380.135C95.7361 375.939 111.684 361.301 114.984 359.809C118.285 358.317 156.563 401.019 152.783 404.075C149.002 407.13 128.993 425.557 121.468 430.243C106.437 413.883 95.986 395.096 91.1909 380.135Z" fill="white"/>
<path d="M89.6608 376.421C94.206 372.225 109.589 358.035 112.895 356.543C116.2 355.051 154.754 400.913 150.973 403.968C147.192 407.022 127.125 426.608 121.195 430.364" stroke="#1B3C87" stroke-width="2.06077" stroke-linecap="round" stroke-linejoin="round"/>
<path fill-rule="evenodd" clip-rule="evenodd" d="M190.351 331.902C212.285 365.261 158.417 407.126 150.172 409.531C141.926 411.936 106.423 363.297 108.994 356.891C111.565 350.485 163.864 291.618 190.351 331.902Z" fill="#46DBC9"/>
<path d="M134.134 325.589C151.55 313.508 173.225 306.537 187.452 328.175C209.386 361.534 155.518 403.399 147.273 405.804C139.027 408.209 103.524 359.564 106.096 353.164C106.595 351.926 108.957 348.717 112.637 344.645" stroke="#1B3C87" stroke-width="2.06077" stroke-linecap="round" stroke-linejoin="round"/>
<path fill-rule="evenodd" clip-rule="evenodd" d="M234.421 303.608C209.716 303.46 185.407 308.213 173.426 317.521C153.97 332.64 141.029 426.095 146.61 453.906C173.337 473.497 206.309 485.074 241.988 485.074C270.153 485.074 296.63 477.855 319.685 465.182C323.766 430.456 313.706 331.184 297.795 319.108C284.23 308.81 259.128 303.757 234.421 303.608Z" fill="#46DBC9"/>
<path d="M151.429 357.354C156.11 336.803 162.377 319.666 169.803 313.898C193.766 295.282 267.039 294.886 294.171 315.482C311.05 328.298 322.094 439.454 315.163 467.179" stroke="#1B3C87" stroke-width="2.06077" stroke-linecap="round" stroke-linejoin="round"/>
<path d="M143.068 450.742C141.948 443.667 141.878 432.192 142.723 418.79" stroke="#1B3C87" stroke-width="2.06077" stroke-linecap="round" stroke-linejoin="round"/>
<path d="M32.696 50.0363L106.492 77.897L74.8221 161.765L1.03613 133.905L32.696 50.0363Z" stroke="#B6C6FC" stroke-width="2.06077" stroke-linecap="round" stroke-linejoin="round"/>
<path d="M363.627 31.3942L379.304 173.957L480.226 2L363.627 31.3942Z" stroke="#B6C6FC" stroke-width="2.06077" stroke-linecap="round" stroke-linejoin="round"/>
<path d="M30.489 168.606C30.489 144.659 49.9006 125.249 73.8459 125.249C97.7911 125.249 117.199 144.66 117.199 168.606C117.199 192.551 97.7877 211.962 73.8424 211.962C49.8971 211.962 30.489 192.551 30.489 168.606Z" stroke="#B6C6FC" stroke-width="2.06077" stroke-linecap="round" stroke-linejoin="round"/>
<path fill-rule="evenodd" clip-rule="evenodd" d="M338.243 454.707C334.801 451.265 311.073 418.903 308.4 415.857C305.726 412.81 356.456 370.744 359.576 374.422C362.696 378.101 375.204 395.606 381.037 405.23C376.35 413.677 350.434 446.387 338.243 454.707Z" fill="white"/>
<path d="M339.394 452.144C336.516 448.219 310.8 412.792 308.126 409.745C305.451 406.697 356.183 364.632 359.303 368.31C362.423 371.989 377.365 392.439 382.512 402.446" stroke="#1B3C87" stroke-width="2.06077" stroke-linecap="round" stroke-linejoin="round"/>
<path fill-rule="evenodd" clip-rule="evenodd" d="M283.729 314.137C309.346 296.56 371.175 356.929 371.021 374.924C370.867 392.92 315.893 425.619 306.736 420.897C296.643 415.697 244.421 341.093 283.729 314.137Z" fill="#46DBC9"/>
<path d="M268.293 353.423C264.839 336.691 267.057 320.64 281.317 310.86C306.939 293.287 368.763 353.655 368.608 371.655C368.452 389.655 313.481 422.349 304.323 417.627C301.393 416.116 294.911 408.756 288.15 398.409" stroke="#1B3C87" stroke-width="2.06077" stroke-linecap="round" stroke-linejoin="round"/>
<path d="M80.4738 323.553C80.4738 234.347 152.79 162.03 241.997 162.03C331.204 162.03 403.52 234.345 403.52 323.553C403.52 412.762 331.204 485.077 241.997 485.077C152.79 485.077 80.4738 412.76 80.4738 323.553Z" stroke="#1B3C87" stroke-width="2.06077" stroke-linecap="round" stroke-linejoin="round"/>
<path fill-rule="evenodd" clip-rule="evenodd" d="M380.84 350.437C380.999 345.796 390.042 343.914 401.039 346.231C412.036 348.549 420.822 354.189 420.665 358.829C420.507 363.468 411.461 365.351 400.464 363.033C389.467 360.716 380.678 355.077 380.84 350.437Z" fill="white"/>
<path fill-rule="evenodd" clip-rule="evenodd" d="M384.101 332.685C384.26 328.046 393.304 326.162 404.3 328.48C415.297 330.797 424.085 336.437 423.926 341.077C423.767 345.717 414.723 347.6 403.726 345.283C392.729 342.965 383.948 337.325 384.101 332.685Z" fill="white"/>
<path fill-rule="evenodd" clip-rule="evenodd" d="M383.68 314.34C383.839 309.7 392.882 307.818 403.88 310.134C414.878 312.451 423.664 318.092 423.505 322.732C423.346 327.371 414.302 329.255 403.305 326.937C392.308 324.62 383.521 318.98 383.68 314.34Z" fill="white"/>
<path d="M388.2 307.608C391.814 306.94 396.651 307.083 401.942 308.197C412.939 310.514 421.725 316.155 421.566 320.794C421.459 323.927 417.301 325.803 411.224 325.975" stroke="#1B3C87" stroke-width="2.06077" stroke-linecap="round" stroke-linejoin="round"/>
<path d="M385.49 326.865C389.114 325.295 395.34 325.062 402.363 326.542C413.36 328.86 422.146 334.5 421.987 339.139C421.872 342.522 417.037 344.435 410.156 344.332" stroke="#1B3C87" stroke-width="2.06077" stroke-linecap="round" stroke-linejoin="round"/>
<path d="M387.748 343.394C390.99 343.137 394.9 343.409 399.097 344.294C410.094 346.611 418.88 352.25 418.721 356.891C418.622 359.79 415.052 361.611 409.703 362.007" stroke="#1B3C87" stroke-width="2.06077" stroke-linecap="round" stroke-linejoin="round"/>
<path fill-rule="evenodd" clip-rule="evenodd" d="M59.5091 321.075C59.668 316.435 68.7124 314.553 79.7093 316.871C90.7062 319.188 99.4927 324.827 99.3338 329.468C99.1749 334.109 90.1317 335.99 79.1336 333.672C68.1356 331.355 59.3502 325.715 59.5091 321.075Z" fill="white"/>
<path fill-rule="evenodd" clip-rule="evenodd" d="M62.7741 303.324C62.933 298.684 71.9773 296.802 82.9743 299.119C93.9712 301.437 102.758 307.077 102.599 311.72C102.44 316.363 93.3967 318.242 82.3998 315.924C71.4029 313.607 62.6152 307.964 62.7741 303.324Z" fill="white"/>
<path fill-rule="evenodd" clip-rule="evenodd" d="M62.3527 284.978C62.5116 280.338 71.556 278.456 82.5529 280.774C93.5498 283.091 102.336 288.731 102.177 293.371C102.019 298.01 92.9754 299.893 81.9784 297.575C70.9815 295.258 62.195 289.615 62.3527 284.978Z" fill="white"/>
<path d="M64.6288 289.366C61.2441 287.132 59.2029 284.636 59.28 282.378C59.4389 277.739 68.4833 275.857 79.4802 278.174C84.4065 279.21 88.8883 280.916 92.3226 282.894" stroke="#1B3C87" stroke-width="2.06077" stroke-linecap="round" stroke-linejoin="round"/>
<path d="M69.2845 310.042C63.4522 307.343 59.5954 303.812 59.7013 300.724C59.8602 296.084 68.9046 294.202 79.9015 296.518C84.4836 297.484 88.6823 299.027 92.0094 300.833" stroke="#1B3C87" stroke-width="2.06077" stroke-linecap="round" stroke-linejoin="round"/>
<path d="M72.3446 330.14C63.1517 327.462 56.2959 322.577 56.4364 318.474C56.5953 313.835 65.6396 311.951 76.6366 314.269C83.0687 315.625 88.7456 318.116 92.3168 320.88" stroke="#1B3C87" stroke-width="2.06077" stroke-linecap="round" stroke-linejoin="round"/>
<path fill-rule="evenodd" clip-rule="evenodd" d="M259.137 268.115C258.09 274.072 253.265 298.056 256.963 324.054C252.698 327.278 227.827 329.607 220.986 324.054C221.228 313.51 221.469 292.422 220.504 287.03C219.539 281.637 260.187 262.16 259.137 268.115Z" fill="white"/>
<path d="M218.193 320.596C218.434 310.052 218.676 288.964 217.71 283.571C216.744 278.179 257.389 258.704 256.344 264.657C255.299 270.61 250.472 294.598 254.17 320.596C252.24 322.052 246.088 323.328 239.297 323.774" stroke="#1B3C87" stroke-width="2.06077" stroke-linecap="round" stroke-linejoin="round"/>
<path fill-rule="evenodd" clip-rule="evenodd" d="M177.918 233.603C180.285 204.565 202.078 182.614 226.592 184.572C251.106 186.531 269.061 211.657 266.693 240.694C264.325 269.732 242.533 291.688 218.019 289.731C193.505 287.773 175.55 262.64 177.918 233.603Z" fill="white"/>
<path d="M241.458 279.769C233.878 284.939 225.011 287.606 215.757 286.867C204.341 285.955 194.344 280.018 187.167 271.003" stroke="#1B3C87" stroke-width="2.06077" stroke-linecap="round" stroke-linejoin="round"/>
<path d="M177.641 252.09C175.787 245.455 175.047 238.23 175.657 230.745C178.024 201.708 199.817 179.757 224.332 181.715C248.847 183.673 266.8 208.8 264.433 237.837C263.719 246.587 261.243 254.692 257.458 261.694" stroke="#1B3C87" stroke-width="2.06077" stroke-linecap="round" stroke-linejoin="round"/>
<path fill-rule="evenodd" clip-rule="evenodd" d="M221.015 222.997C221.353 219.859 222.78 217.439 224.201 217.592C225.621 217.745 226.497 220.415 226.158 223.552C225.818 226.689 224.392 229.111 222.972 228.956C221.553 228.802 220.675 226.135 221.015 222.997Z" fill="#1B3C87"/>
<path d="M201.481 225.627C200.354 230.485 197.231 236.036 193.501 238.981" stroke="#1B3C87" stroke-width="2.06077" stroke-linecap="round" stroke-linejoin="round"/>
<path d="M210.59 255.858C210.59 254.837 210.893 253.839 211.46 252.991C212.027 252.142 212.833 251.48 213.776 251.09C214.719 250.699 215.757 250.597 216.758 250.796C217.759 250.995 218.679 251.487 219.401 252.208C220.123 252.93 220.614 253.85 220.813 254.851C221.012 255.852 220.91 256.89 220.52 257.833C220.129 258.776 219.467 259.582 218.619 260.149C217.77 260.716 216.772 261.019 215.751 261.019C214.383 261.019 213.07 260.475 212.102 259.507C211.134 258.539 210.591 257.227 210.59 255.858V255.858Z" stroke="#1B3C87" stroke-width="2.06077" stroke-linecap="round" stroke-linejoin="round"/>
<path fill-rule="evenodd" clip-rule="evenodd" d="M253.751 241.522C250.635 241.3 241.689 228.537 250.866 219.763C246.364 215.377 219.876 195.551 188.054 207.847C183.92 203.642 172.635 186.737 182.376 179.448C192.117 172.159 196.186 180.974 197.447 184.477C194.505 175.228 196.161 150.349 220.933 150.074C245.705 149.798 272.339 222.176 271.262 235.165C270.186 248.154 270.132 249.908 253.751 241.522Z" fill="#FB5D64"/>
<path d="M252.676 183.732C262.047 203.157 268.231 223.94 267.701 230.333C266.624 243.322 266.571 245.076 250.19 236.69C247.075 236.468 238.129 223.705 247.305 214.931C243.743 211.46 226.412 198.32 203.566 199.081" stroke="#1B3C87" stroke-width="2.06077" stroke-linecap="round" stroke-linejoin="round"/>
<path d="M184.493 203.016C180.359 198.811 169.074 181.906 178.815 174.617C188.556 167.329 192.63 176.142 193.886 179.646C190.944 170.396 192.602 145.518 217.372 145.242C223.589 145.173 229.929 149.684 235.916 156.685" stroke="#1B3C87" stroke-width="2.06077" stroke-linecap="round" stroke-linejoin="round"/>
<path fill-rule="evenodd" clip-rule="evenodd" d="M246.674 247.688C246.674 245.444 247.34 243.25 248.587 241.384C249.834 239.518 251.606 238.063 253.68 237.204C255.753 236.345 258.035 236.121 260.236 236.558C262.438 236.996 264.46 238.077 266.047 239.664C267.634 241.251 268.715 243.273 269.153 245.475C269.59 247.676 269.366 249.958 268.507 252.031C267.648 254.105 266.193 255.877 264.327 257.124C262.461 258.371 260.267 259.036 258.023 259.036C255.013 259.036 252.126 257.841 249.998 255.713C247.87 253.585 246.674 250.698 246.674 247.688Z" fill="white"/>
<path d="M252.251 235.842C254.007 235.034 255.94 234.688 257.867 234.837C259.793 234.985 261.65 235.624 263.261 236.691C264.872 237.758 266.184 239.219 267.072 240.936C267.961 242.652 268.396 244.567 268.337 246.498C268.278 248.43 267.726 250.315 266.735 251.973C265.743 253.632 264.344 255.01 262.671 255.977C260.998 256.944 259.105 257.467 257.173 257.498C255.241 257.528 253.333 257.065 251.63 256.151" stroke="#1B3C87" stroke-width="2.06077" stroke-linecap="round" stroke-linejoin="round"/>
</svg>
