<svg width="131" height="31" viewBox="0 0 131 31" fill="none" xmlns="http://www.w3.org/2000/svg">
<path d="M7.25701 30.2761C4.81832 30.2761 3.0008 29.5859 1.80446 28.2055C0.631127 26.8251 0.0444606 24.7775 0.0444606 22.0627V0.356078H5.8076V21.8212C5.8076 22.7644 5.89962 23.5007 6.08368 24.0298C6.26773 24.559 6.65884 24.8235 7.25701 24.8235C7.85518 24.8235 8.24629 24.5705 8.43034 24.0643C8.6144 23.5352 8.70642 22.7875 8.70642 21.8212V0.356078H14.4696V22.0627C14.4696 24.7775 13.8714 26.8251 12.675 28.2055C11.5017 29.5859 9.6957 30.2761 7.25701 30.2761ZM16.0443 0.356078H23.8781C26.2477 0.356078 27.9387 1.1268 28.951 2.66823C29.9633 4.18667 30.4694 6.4183 30.4694 9.36314C30.4694 12.308 30.0208 14.5281 29.1236 16.0235C28.2263 17.519 26.6158 18.2667 24.2922 18.2667H21.8765V30H16.0443V0.356078ZM22.2216 12.9176C22.9348 12.9176 23.4524 12.7911 23.7745 12.538C24.1196 12.262 24.3382 11.8824 24.4302 11.3992C24.5453 10.8931 24.6028 10.1799 24.6028 9.25961C24.6028 8.01725 24.4647 7.12 24.1887 6.56784C23.9126 6.01569 23.3604 5.73961 22.5322 5.73961H21.8765V12.9176H22.2216ZM36.325 30.3451C34.5535 30.3451 33.2077 29.7124 32.2874 28.4471C31.3671 27.1817 30.907 25.5367 30.907 23.5122C30.907 21.2575 31.2291 19.4515 31.8733 18.0941C32.5175 16.7137 33.5298 15.5059 34.9101 14.4706C33.7828 12.262 33.2192 10.3524 33.2192 8.74196C33.2192 7.06248 33.7598 5.75111 34.8411 4.80784C35.9454 3.84157 37.3603 3.35843 39.0858 3.35843C40.7883 3.35843 42.1802 3.81856 43.2615 4.73882C44.3658 5.63608 44.918 6.90144 44.918 8.5349C44.918 10.9276 43.5951 13.1707 40.9494 15.2643L42.0192 17.7835C42.6633 16.081 43.6296 14.7582 44.918 13.8149L47.2647 17.4729C45.9073 18.5312 44.803 20.2797 43.9517 22.7184L46.9541 30H41.2254L40.6043 28.378C40.1211 28.9532 39.4999 29.4248 38.7407 29.7929C38.0045 30.161 37.1993 30.3451 36.325 30.3451ZM39.707 10.9851C39.9371 10.732 40.1441 10.3754 40.3282 9.91529C40.5122 9.43216 40.6043 8.97202 40.6043 8.5349C40.6043 7.84471 40.2707 7.49961 39.6035 7.49961C39.3274 7.49961 39.1088 7.60314 38.9478 7.8102C38.7867 7.99425 38.7062 8.23582 38.7062 8.5349C38.7062 9.13307 38.9478 10.0533 39.4309 11.2957L39.707 10.9851ZM37.2568 26.0314C37.6939 26.0314 38.062 25.8703 38.3611 25.5482C38.6602 25.2031 38.8558 24.812 38.9478 24.3749L36.9117 19.4745L36.7047 19.7851C36.5206 20.0612 36.3711 20.4983 36.256 21.0965C36.141 21.6946 36.0835 22.2813 36.0835 22.8565V23.029C36.0835 23.9263 36.1525 24.651 36.2905 25.2031C36.4286 25.7553 36.7507 26.0314 37.2568 26.0314ZM55.4049 30.2761C52.7132 30.2761 50.7691 29.6089 49.5728 28.2745C48.3764 26.9401 47.7783 24.789 47.7783 21.8212V18.9224H53.6104V22.6149C53.6104 24.0873 54.082 24.8235 55.0253 24.8235C55.5545 24.8235 55.9226 24.674 56.1296 24.3749C56.3367 24.0528 56.4402 23.5237 56.4402 22.7875C56.4402 21.8212 56.3252 21.0275 56.0951 20.4063C55.8651 19.7621 55.566 19.2329 55.1979 18.8188C54.8528 18.3817 54.2201 17.7145 53.2998 16.8173L50.7461 14.2635C48.7675 12.331 47.7783 10.1914 47.7783 7.84471C47.7783 5.31399 48.3534 3.39294 49.5037 2.08157C50.6771 0.747188 52.3796 0.0799986 54.6112 0.0799986C57.28 0.0799986 59.201 0.793201 60.3743 2.21961C61.5477 3.62301 62.1343 5.83163 62.1343 8.84549H56.0951L56.0606 6.80941C56.0606 6.4183 55.9456 6.10771 55.7155 5.87765C55.5085 5.64758 55.2094 5.53255 54.8183 5.53255C54.3581 5.53255 54.013 5.65908 53.783 5.91216C53.5529 6.16523 53.4379 6.51033 53.4379 6.94745C53.4379 7.91372 53.99 8.91451 55.0943 9.9498L58.5453 13.2627C59.3505 14.045 60.0177 14.7927 60.5469 15.5059C61.076 16.1961 61.5017 17.0243 61.8237 17.9906C62.1458 18.9339 62.3069 20.0612 62.3069 21.3725C62.3069 24.2944 61.7662 26.5145 60.6849 28.0329C59.6266 29.5284 57.8666 30.2761 55.4049 30.2761ZM70.6561 30.2761C68.2634 30.2761 66.4459 29.5514 65.2036 28.102C63.9612 26.6295 63.34 24.5705 63.34 21.9247V7.8102C63.34 5.25647 63.9612 3.33542 65.2036 2.04706C66.4459 0.735685 68.2634 0.0799986 70.6561 0.0799986C73.0488 0.0799986 74.8663 0.735685 76.1086 2.04706C77.351 3.33542 77.9722 5.25647 77.9722 7.8102V21.9247C77.9722 24.5935 77.351 26.6525 76.1086 28.102C74.8663 29.5514 73.0488 30.2761 70.6561 30.2761ZM70.6561 24.8235C71.1853 24.8235 71.5419 24.5935 71.7259 24.1333C71.91 23.6732 72.002 23.029 72.002 22.2008V7.70667C72.002 7.06248 71.91 6.54484 71.7259 6.15372C71.5649 5.73961 71.2198 5.53255 70.6906 5.53255C69.7013 5.53255 69.2067 6.28026 69.2067 7.77568V22.2353C69.2067 23.0865 69.3102 23.7307 69.5173 24.1678C69.7243 24.605 70.1039 24.8235 70.6561 24.8235ZM86.5764 30.2761C84.4138 30.2761 82.6768 29.5974 81.3655 28.24C80.0771 26.8826 79.4329 25.0191 79.4329 22.6494V8.98353C79.4329 6.03869 80.0196 3.81856 81.1929 2.32314C82.3663 0.827711 84.2068 0.0799986 86.7145 0.0799986C88.9001 0.0799986 90.6601 0.678168 91.9945 1.87451C93.3289 3.07085 93.9961 4.79634 93.9961 7.05098V12.1584H88.0949V7.77568C88.0949 6.92444 87.9913 6.33778 87.7843 6.01568C87.5772 5.69359 87.2206 5.53255 86.7145 5.53255C86.1853 5.53255 85.8172 5.7166 85.6102 6.08471C85.4261 6.45281 85.3341 6.99346 85.3341 7.70667V22.5804C85.3341 23.3626 85.4491 23.9378 85.6792 24.3059C85.9093 24.651 86.2544 24.8235 86.7145 24.8235C87.6347 24.8235 88.0949 24.0758 88.0949 22.5804V17.2314H94.0651V22.822C94.0651 27.7914 91.5689 30.2761 86.5764 30.2761ZM95.0532 30V0.356078H100.782V30H95.0532ZM101.664 30L104.528 0.356078H114.571L117.4 30H111.775L111.361 25.2031H107.772L107.427 30H101.664ZM108.221 20.4753H110.913L109.601 5.39451H109.325L108.221 20.4753ZM118.517 30V0.356078H124.453V24.9616H130.561V30H118.517Z" fill="white"/>
</svg>
